<svg width="685.56435546875px" height="121.39999999999999px" xmlns="http://www.w3.org/2000/svg" viewBox="-92.78217773437501 14.300000000000004 685.56435546875 121.39999999999999" style="background: rgba(0, 0, 0, 0);" preserveAspectRatio="xMidYMid"><defs><linearGradient id="editing-shiny-gradient" x1="0.04322727117869957" x2="0.9567727288213004" y1="0.2966316784620999" y2="0.7033683215379001" gradientUnits="objectBoundingBox"><stop offset="0.0" stop-color="#ffb200"></stop><stop offset="0.5" stop-color="#e10057"></stop><stop offset="1.0" stop-color="#5A1A80"></stop></linearGradient><linearGradient id="editing-shiny-gradient2" x1="0" x2="0" y1="0" y2="1"><stop offset="0.2" stop-color="#fff" stop-opacity="0.8"></stop><stop offset="0.8" stop-color="#fff" stop-opacity="0"></stop></linearGradient><filter id="editing-shiny2" x="-100%" y="-100%" width="300%" height="300%"><feMorphology operator="erode" radius="2"></feMorphology></filter><filter id="editing-shiny" x="-100%" y="-100%" width="300%" height="300%"><feFlood flood-color="#fff" result="flood"></feFlood><feConvolveMatrix in="SourceGraphic" result="conv" order="8,8" divisor="1" kernelMatrix="0 0 0 0 0 0 0 0 0 0 0 1 1 0 0 0 0 0 0 1 1 0 0 0 0 0 1 0 0 1 0 0 0 0 1 0 0 1 0 0 0 1 0 0 0 0 1 0 0 1 1 0 0 1 1 0 0 0 0 1 1 0 0 0 "></feConvolveMatrix><feOffset dx="0" dy="4" in="conv" result="offset"></feOffset><feComposite operator="in" in="flood" in2="offset" result="comp"></feComposite><feGaussianBlur in="offset" stdDeviation="3" result="shadow"></feGaussianBlur><feColorMatrix in="shadow" type="matrix" values="0.7 0 0 0 0  0 0.7 0 0 0  0 0 0.7 0 0  0 0 0 0.3 0" result="dark-shadow"></feColorMatrix><feOffset dx="0" dy="4" in="dark-shadow" result="offset-shadow"></feOffset><feOffset dx="0" dy="2" in="conv" result="offset-2"></feOffset><feComposite operator="out" in="offset" in2="offset-2" result="edge-diff"></feComposite><feGaussianBlur in="edge-diff" stdDeviation="1" result="edge-blur"></feGaussianBlur><feColorMatrix in="edge-blur" result="edge-shadow" type="matrix" values="0 0 0 0 0  0 0 0 0 0  0 0 0 0 0  0 0 0 0.5 0"></feColorMatrix><feComposite operator="in" in="edge-shadow" in2="offset" result="edge-shadow-in"></feComposite><feOffset dx="0" dy="1" in="edge-shadow-in" result="edge-shadow-final"></feOffset><feMerge result="out"><feMergeNode in="offset-shadow"></feMergeNode><feMergeNode in="comp"></feMergeNode><feMergeNode in="edge-shadow-final"></feMergeNode><feMergeNode in="SourceGraphic"></feMergeNode></feMerge></filter></defs><g filter="url(#editing-shiny)"><g transform="translate(7.758742719888687, 97.8799991607666)"><path d="M13.18-32.32L11.39-26.30L11.39-26.30Q15.10-26.62 17.41-26.62L17.41-26.62L17.41-26.62Q19.71-26.62 22.14-25.79L22.14-25.79L22.14-25.79Q24.58-24.96 26.37-23.55L26.37-23.55L26.37-23.55Q30.34-20.42 30.34-16.42L30.34-16.42L30.34-16.42Q30.34-12.42 28.90-9.22L28.90-9.22L28.90-9.22Q27.46-6.02 24.96-3.71L24.96-3.71L24.96-3.71Q19.65 1.28 11.58 1.28L11.58 1.28L11.58 1.28Q5.76 1.28 2.69-0.58L2.69-0.58L2.69-0.58Q-0.38-2.43-0.38-5.98L-0.38-5.98L-0.38-5.98Q-0.38-9.54 1.86-11.46L1.86-11.46L1.86-11.46Q4.54-6.91 10.24-6.91L10.24-6.91L10.24-6.91Q13.70-6.91 15.62-8.51L15.62-8.51L15.62-8.51Q17.54-10.11 17.54-13.18L17.54-13.18L17.54-13.18Q17.54-19.33 8.64-19.33L8.64-19.33L8.64-19.33Q5.25-19.33 3.07-19.07L3.07-19.07L9.09-42.24L24.13-42.24L24.13-42.24Q29.18-42.24 30.78-44.48L30.78-44.48L30.78-44.48Q32.45-43.01 32.45-39.74L32.45-39.74L32.45-39.74Q32.45-36.67 30.02-34.50L30.02-34.50L30.02-34.50Q27.58-32.32 24.13-32.32L24.13-32.32L13.18-32.32ZM46.14 0.83L42.05 0.70L42.05 0.70Q40.06 0.64 37.98 0.64L37.98 0.64L37.98 0.64Q35.90 0.64 33.86 0.90L33.86 0.90L33.86 0.90Q33.60-0.13 33.60-1.34L33.60-1.34L33.60-1.34Q33.60-3.90 35.04-5.44L35.04-5.44L35.04-5.44Q36.48-6.98 38.72-6.98L38.72-6.98L42.18-6.98L47.55-31.17L47.55-31.17Q45.57-29.18 41.47-29.18L41.47-29.18L41.47-29.18Q39.42-29.18 37.82-31.10L37.82-31.10L37.82-31.10Q36.22-32.90 35.97-35.46L35.97-35.46L35.97-35.46Q45.44-37.12 59.58-43.46L59.58-43.46L61.63-41.02L55.42-6.98L57.02-6.98L57.02-6.98Q60.86-6.98 62.85-7.68L62.85-7.68L62.85-7.68Q63.68-6.27 63.68-3.97L63.68-3.97L63.68-3.97Q63.68-1.66 61.98-0.29L61.98-0.29L61.98-0.29Q60.29 1.09 57.47 1.09L57.47 1.09L57.47 1.09Q51.78 1.09 46.14 0.83L46.14 0.83ZM66.75-8.90L66.75-8.90L66.75-8.90Q66.75-16.26 76.35-20.93L76.35-20.93L76.35-20.93Q72.13-24.38 72.13-28.86L72.13-28.86L72.13-28.86Q72.13-35.01 77.25-39.30L77.25-39.30L77.25-39.30Q82.30-43.52 89.86-43.52L89.86-43.52L89.86-43.52Q94.98-43.52 98.11-41.09L98.11-41.09L98.11-41.09Q101.25-38.66 101.25-35.01L101.25-35.01L101.25-35.01Q101.25-29.44 95.62-25.60L95.62-25.60L95.62-25.60Q94.02-24.51 92.29-23.74L92.29-23.74L92.29-23.74Q96.45-20.29 97.47-18.82L97.47-18.82L97.47-18.82Q99.20-16.45 99.20-13.57L99.20-13.57L99.20-13.57Q99.20-10.69 97.76-7.87L97.76-7.87L97.76-7.87Q96.32-5.06 93.76-3.07L93.76-3.07L93.76-3.07Q88.38 1.28 80.51 1.28L80.51 1.28L80.51 1.28Q74.24 1.28 70.46-1.54L70.46-1.54L70.46-1.54Q66.75-4.35 66.75-8.90ZM84.67-13.63L80.19-17.41L80.19-17.41Q76.93-14.91 76.93-10.69L76.93-10.69L76.93-10.69Q76.93-8.45 77.98-6.91L77.98-6.91L77.98-6.91Q79.04-5.38 81.02-5.38L81.02-5.38L81.02-5.38Q83.01-5.38 84.51-6.85L84.51-6.85L84.51-6.85Q86.02-8.32 86.02-10.56L86.02-10.56L86.02-10.56Q86.02-12.54 84.67-13.63L84.67-13.63ZM84.54-29.70L88.32-26.88L88.32-26.88Q91.84-28.54 91.84-32.45L91.84-32.45L91.84-32.45Q91.84-34.50 90.75-35.84L90.75-35.84L90.75-35.84Q89.66-37.18 87.68-37.18L87.68-37.18L87.68-37.18Q85.70-37.18 84.38-36.03L84.38-36.03L84.38-36.03Q83.07-34.88 83.07-33.41L83.07-33.41L83.07-33.41Q83.07-30.91 84.54-29.70L84.54-29.70ZM145.47-26.56L145.47-26.56L145.47-26.56Q145.47 0.70 115.90 0.70L115.90 0.70L115.90 0.70Q111.17 0.70 103.36-0.45L103.36-0.45L110.53-38.27L110.53-38.27Q111.04-40.83 111.36-42.30L111.36-42.30L111.36-42.30Q121.09-43.01 125.41-43.01L125.41-43.01L125.41-43.01Q129.73-43.01 133.70-42.11L133.70-42.11L133.70-42.11Q137.66-41.22 140.29-39.23L140.29-39.23L140.29-39.23Q145.47-35.33 145.47-26.56ZM132.29-28.93L132.29-28.93L132.29-28.93Q132.29-38.46 125.44-38.46L125.44-38.46L124.80-38.46L124.80-38.46Q124.48-38.46 124.16-38.40L124.16-38.40L117.57-4.03L117.57-4.03Q117.82-3.90 118.08-3.90L118.08-3.90L118.59-3.90L118.59-3.90Q120.96-3.90 123.42-5.38L123.42-5.38L123.42-5.38Q125.89-6.85 127.81-9.86L127.81-9.86L127.81-9.86Q132.29-16.83 132.29-28.93ZM176.06-9.86L176.06-9.86L176.06-9.86Q177.28-8.32 177.28-5.82L177.28-5.82L177.28-5.82Q177.28-2.37 174.72-0.54L174.72-0.54L174.72-0.54Q172.16 1.28 168.13 1.28L168.13 1.28L168.13 1.28Q165.82 1.28 162.30 0.77L162.30 0.77L162.30 0.77Q155.39-0.32 153.28-0.32L153.28-0.32L153.28-0.32Q151.17-0.32 150.34-0.22L150.34-0.22L150.34-0.22Q149.50-0.13 148.16 0L148.16 0L156.03-42.24L183.62-42.24L183.62-42.24Q183.62-38.34 181.73-36.29L181.73-36.29L181.73-36.29Q179.84-34.24 176.13-34.24L176.13-34.24L176.13-34.24Q172.42-34.24 168.64-35.97L168.64-35.97L166.66-24.77L178.05-24.77L178.05-24.77Q178.05-21.38 176.38-19.49L176.38-19.49L176.38-19.49Q174.72-17.60 171.94-17.60L171.94-17.60L171.94-17.60Q169.15-17.60 167.42-18.24L167.42-18.24L167.42-18.24Q165.70-18.88 165.50-19.07L165.50-19.07L163.20-6.98L163.20-6.98Q164.74-6.78 167.62-6.78L167.62-6.78L167.62-6.78Q172.54-6.78 176.06-9.86ZM188.61 0L181.25 0L192.83-42.24L206.21-42.24L209.15-18.11L221.06-42.24L232.26-42.24L233.41-10.62L233.41-10.62Q233.66-4.35 236.74-2.43L236.74-2.43L236.74-2.43Q236.03-1.15 233.98 0.06L233.98 0.06L233.98 0.06Q231.94 1.28 229.22 1.28L229.22 1.28L229.22 1.28Q226.50 1.28 224.90 0.51L224.90 0.51L224.90 0.51Q223.30-0.26 222.40-1.54L222.40-1.54L222.40-1.54Q220.80-3.84 220.80-8.26L220.80-8.26L220.80-28.03L208.19 0L200.26 0L195.78-28.74L188.61 0ZM240.45-15.62L240.45-15.62L240.45-15.62Q240.45-27.71 246.72-35.33L246.72-35.33L246.72-35.33Q253.38-43.58 264.96-43.58L264.96-43.58L264.96-43.58Q273.34-43.58 277.57-39.52L277.57-39.52L277.57-39.52Q281.79-35.46 281.79-26.88L281.79-26.88L281.79-26.88Q281.79-13.82 275.14-6.21L275.14-6.21L275.14-6.21Q268.54 1.28 257.47 1.28L257.47 1.28L257.47 1.28Q248.83 1.28 244.64-3.04L244.64-3.04L244.64-3.04Q240.45-7.36 240.45-15.62ZM257.28-28.86L257.28-28.86L257.28-28.86Q254.40-17.34 254.40-8.26L254.40-8.26L254.40-8.26Q254.40-6.08 255.14-4.67L255.14-4.67L255.14-4.67Q255.87-3.26 257.82-3.26L257.82-3.26L257.82-3.26Q259.78-3.26 260.99-4.19L260.99-4.19L260.99-4.19Q262.21-5.12 263.17-7.23L263.17-7.23L263.17-7.23Q264.70-10.69 266.14-18.02L266.14-18.02L266.14-18.02Q267.58-25.34 267.71-28.38L267.71-28.38L267.71-28.38Q267.84-31.42 267.84-33.73L267.84-33.73L267.84-33.73Q267.84-36.03 267.14-37.50L267.14-37.50L267.14-37.50Q266.43-38.98 264.54-38.98L264.54-38.98L264.54-38.98Q262.66-38.98 261.38-37.82L261.38-37.82L261.38-37.82Q259.01-35.65 257.28-28.86ZM318.34-13.25L318.34-13.25L318.34-13.25Q320-12.03 320-9.44L320-9.44L320-9.44Q320-6.85 318.88-5.02L318.88-5.02L318.88-5.02Q317.76-3.20 315.58-1.79L315.58-1.79L315.58-1.79Q310.91 1.22 302.75 1.22L302.75 1.22L302.75 1.22Q294.59 1.22 290.14-3.04L290.14-3.04L290.14-3.04Q285.70-7.30 285.70-14.85L285.70-14.85L285.70-14.85Q285.70-25.54 291.26-33.66L291.26-33.66L291.26-33.66Q295.49-39.68 303.04-42.24L303.04-42.24L303.04-42.24Q306.94-43.52 310.78-43.52L310.78-43.52L310.78-43.52Q314.62-43.52 316.99-43.01L316.99-43.01L316.99-43.01Q319.36-42.50 321.15-41.47L321.15-41.47L321.15-41.47Q325.06-39.23 325.06-35.65L325.06-35.65L325.06-35.65Q325.06-32.38 321.98-29.95L321.98-29.95L321.98-29.95Q319.17-27.78 316.86-27.78L316.86-27.78L316.86-27.78Q314.56-27.78 313.60-28.10L313.60-28.10L313.60-28.10Q313.86-30.40 313.86-31.90L313.86-31.90L313.86-31.90Q313.86-33.41 313.79-34.50L313.79-34.50L313.79-34.50Q313.73-35.58 313.41-36.61L313.41-36.61L313.41-36.61Q312.77-38.98 310.82-38.98L310.82-38.98L310.82-38.98Q308.86-38.98 306.91-37.15L306.91-37.15L306.91-37.15Q304.96-35.33 303.30-32.26L303.30-32.26L303.30-32.26Q299.52-25.28 299.52-17.02L299.52-17.02L299.52-17.02Q299.52-13.06 301.76-10.78L301.76-10.78L301.76-10.78Q304-8.51 308.80-8.51L308.80-8.51L308.80-8.51Q312.38-8.51 315.78-10.88L315.78-10.88L315.78-10.88Q317.25-11.90 318.34-13.25ZM338.43 0L324.74 0L332.54-42.05L332.54-42.05Q338.88-42.75 348.13-42.75L348.13-42.75L348.13-42.75Q357.38-42.75 361.66-40.06L361.66-40.06L361.66-40.06Q365.95-37.38 365.95-31.97L365.95-31.97L365.95-31.97Q365.95-26.56 363.17-23.17L363.17-23.17L363.17-23.17Q360.38-19.78 355.58-18.69L355.58-18.69L355.58-18.69Q356.67-13.38 359.17-9.09L359.17-9.09L359.17-9.09Q361.47-5.06 364.16-3.78L364.16-3.78L364.16-3.78Q363.20-1.09 361.25 0.10L361.25 0.10L361.25 0.10Q359.30 1.28 356.51 1.28L356.51 1.28L356.51 1.28Q353.73 1.28 351.55-0.35L351.55-0.35L351.55-0.35Q349.38-1.98 347.65-4.99L347.65-4.99L347.65-4.99Q344-11.52 343.62-21.82L343.62-21.82L344.06-21.82L344.06-21.82Q348.80-21.95 351.17-24.42L351.17-24.42L351.17-24.42Q353.54-26.88 353.54-32.06L353.54-32.06L353.54-32.06Q353.54-38.53 348.10-38.78L348.10-38.78L346.69-38.78L346.69-38.78Q346.11-38.78 345.79-38.72L345.79-38.72L338.43 0ZM396.99 1.28L396.99 1.28L396.99 1.28Q388.80 1.28 388.03-10.37L388.03-10.37L377.02-10.37L377.02-10.37Q375.74-7.42 374.85-4.86L374.85-4.86L373.18 0L364.22 0L384.38-42.24L398.14-42.24L400.83-11.14L400.83-11.14Q401.47-4.42 404.03-2.43L404.03-2.43L404.03-2.43Q402.18 1.28 396.99 1.28ZM382.53-23.17L379.01-15.04L387.84-15.04L387.07-31.49L387.07-33.22L382.53-23.17ZM440.45-13.25L440.45-13.25L440.45-13.25Q442.11-12.03 442.11-9.44L442.11-9.44L442.11-9.44Q442.11-6.85 440.99-5.02L440.99-5.02L440.99-5.02Q439.87-3.20 437.70-1.79L437.70-1.79L437.70-1.79Q433.02 1.22 424.86 1.22L424.86 1.22L424.86 1.22Q416.70 1.22 412.26-3.04L412.26-3.04L412.26-3.04Q407.81-7.30 407.81-14.85L407.81-14.85L407.81-14.85Q407.81-25.54 413.38-33.66L413.38-33.66L413.38-33.66Q417.60-39.68 425.15-42.24L425.15-42.24L425.15-42.24Q429.06-43.52 432.90-43.52L432.90-43.52L432.90-43.52Q436.74-43.52 439.10-43.01L439.10-43.01L439.10-43.01Q441.47-42.50 443.26-41.47L443.26-41.47L443.26-41.47Q447.17-39.23 447.17-35.65L447.17-35.65L447.17-35.65Q447.17-32.38 444.10-29.95L444.10-29.95L444.10-29.95Q441.28-27.78 438.98-27.78L438.98-27.78L438.98-27.78Q436.67-27.78 435.71-28.10L435.71-28.10L435.71-28.10Q435.97-30.40 435.97-31.90L435.97-31.90L435.97-31.90Q435.97-33.41 435.90-34.50L435.90-34.50L435.90-34.50Q435.84-35.58 435.52-36.61L435.52-36.61L435.52-36.61Q434.88-38.98 432.93-38.98L432.93-38.98L432.93-38.98Q430.98-38.98 429.02-37.15L429.02-37.15L429.02-37.15Q427.07-35.33 425.41-32.26L425.41-32.26L425.41-32.26Q421.63-25.28 421.63-17.02L421.63-17.02L421.63-17.02Q421.63-13.06 423.87-10.78L423.87-10.78L423.87-10.78Q426.11-8.51 430.91-8.51L430.91-8.51L430.91-8.51Q434.50-8.51 437.89-10.88L437.89-10.88L437.89-10.88Q439.36-11.90 440.45-13.25ZM453.50 0L457.22-18.82L457.22-18.82Q455.36-36.16 448.83-39.87L448.83-39.87L448.83-39.87Q450.18-41.54 452.35-42.46L452.35-42.46L452.35-42.46Q454.53-43.39 457.15-43.39L457.15-43.39L457.15-43.39Q459.78-43.39 461.76-42.46L461.76-42.46L461.76-42.46Q463.74-41.54 465.02-39.55L465.02-39.55L465.02-39.55Q467.46-35.78 467.46-26.75L467.46-26.75L467.46-22.14L467.46-22.14Q471.30-33.41 475.14-38.27L475.14-38.27L475.14-38.27Q479.04-43.26 483.90-43.26L483.90-43.26L483.90-43.26Q485.82-43.26 487.10-42.27L487.10-42.27L487.10-42.27Q488.38-41.28 489.02-39.81L489.02-39.81L489.02-39.81Q484.10-37.63 479.36-31.36L479.36-31.36L479.36-31.36Q474.62-25.09 471.55-16.32L471.55-16.32L467.78 0L453.50 0Z" fill="url(#editing-shiny-gradient)"></path></g></g><g filter="url(#editing-shiny2)"><g transform="translate(7.75831738114357, 97.87999534606934)"><path d="M13.18-32.32L11.39-26.30L11.39-26.30Q15.10-26.62 17.41-26.62L17.41-26.62L17.41-26.62Q19.71-26.62 22.14-25.79L22.14-25.79L22.14-25.79Q24.58-24.96 26.37-23.55L26.37-23.55L26.37-23.55Q30.34-20.42 30.34-16.42L30.34-16.42L30.34-16.42Q30.34-12.42 28.90-9.22L28.90-9.22L28.90-9.22Q27.46-6.02 24.96-3.71L24.96-3.71L24.96-3.71Q19.65 1.28 11.58 1.28L11.58 1.28L11.58 1.28Q5.76 1.28 2.69-0.58L2.69-0.58L2.69-0.58Q-0.38-2.43-0.38-5.98L-0.38-5.98L-0.38-5.98Q-0.38-9.54 1.86-11.46L1.86-11.46L1.86-11.46Q4.54-6.91 10.24-6.91L10.24-6.91L10.24-6.91Q13.70-6.91 15.62-8.51L15.62-8.51L15.62-8.51Q17.54-10.11 17.54-13.18L17.54-13.18L17.54-13.18Q17.54-19.33 8.64-19.33L8.64-19.33L8.64-19.33Q5.25-19.33 3.07-19.07L3.07-19.07L9.09-42.24L24.13-42.24L24.13-42.24Q29.18-42.24 30.78-44.48L30.78-44.48L30.78-44.48Q32.45-43.01 32.45-39.74L32.45-39.74L32.45-39.74Q32.45-36.67 30.02-34.50L30.02-34.50L30.02-34.50Q27.58-32.32 24.13-32.32L24.13-32.32L13.18-32.32ZM46.14 0.83L42.05 0.70L42.05 0.70Q40.06 0.64 37.98 0.64L37.98 0.64L37.98 0.64Q35.90 0.64 33.86 0.90L33.86 0.90L33.86 0.90Q33.60-0.13 33.60-1.34L33.60-1.34L33.60-1.34Q33.60-3.90 35.04-5.44L35.04-5.44L35.04-5.44Q36.48-6.98 38.72-6.98L38.72-6.98L42.18-6.98L47.55-31.17L47.55-31.17Q45.57-29.18 41.47-29.18L41.47-29.18L41.47-29.18Q39.42-29.18 37.82-31.10L37.82-31.10L37.82-31.10Q36.22-32.90 35.97-35.46L35.97-35.46L35.97-35.46Q45.44-37.12 59.58-43.46L59.58-43.46L61.63-41.02L55.42-6.98L57.02-6.98L57.02-6.98Q60.86-6.98 62.85-7.68L62.85-7.68L62.85-7.68Q63.68-6.27 63.68-3.97L63.68-3.97L63.68-3.97Q63.68-1.66 61.98-0.29L61.98-0.29L61.98-0.29Q60.29 1.09 57.47 1.09L57.47 1.09L57.47 1.09Q51.78 1.09 46.14 0.83L46.14 0.83ZM66.75-8.90L66.75-8.90L66.75-8.90Q66.75-16.26 76.35-20.93L76.35-20.93L76.35-20.93Q72.13-24.38 72.13-28.86L72.13-28.86L72.13-28.86Q72.13-35.01 77.25-39.30L77.25-39.30L77.25-39.30Q82.30-43.52 89.86-43.52L89.86-43.52L89.86-43.52Q94.98-43.52 98.11-41.09L98.11-41.09L98.11-41.09Q101.25-38.66 101.25-35.01L101.25-35.01L101.25-35.01Q101.25-29.44 95.62-25.60L95.62-25.60L95.62-25.60Q94.02-24.51 92.29-23.74L92.29-23.74L92.29-23.74Q96.45-20.29 97.47-18.82L97.47-18.82L97.47-18.82Q99.20-16.45 99.20-13.57L99.20-13.57L99.20-13.57Q99.20-10.69 97.76-7.87L97.76-7.87L97.76-7.87Q96.32-5.06 93.76-3.07L93.76-3.07L93.76-3.07Q88.38 1.28 80.51 1.28L80.51 1.28L80.51 1.28Q74.24 1.28 70.46-1.54L70.46-1.54L70.46-1.54Q66.75-4.35 66.75-8.90ZM84.67-13.63L80.19-17.41L80.19-17.41Q76.93-14.91 76.93-10.69L76.93-10.69L76.93-10.69Q76.93-8.45 77.98-6.91L77.98-6.91L77.98-6.91Q79.04-5.38 81.02-5.38L81.02-5.38L81.02-5.38Q83.01-5.38 84.51-6.85L84.51-6.85L84.51-6.85Q86.02-8.32 86.02-10.56L86.02-10.56L86.02-10.56Q86.02-12.54 84.67-13.63L84.67-13.63ZM84.54-29.70L88.32-26.88L88.32-26.88Q91.84-28.54 91.84-32.45L91.84-32.45L91.84-32.45Q91.84-34.50 90.75-35.84L90.75-35.84L90.75-35.84Q89.66-37.18 87.68-37.18L87.68-37.18L87.68-37.18Q85.70-37.18 84.38-36.03L84.38-36.03L84.38-36.03Q83.07-34.88 83.07-33.41L83.07-33.41L83.07-33.41Q83.07-30.91 84.54-29.70L84.54-29.70ZM145.47-26.56L145.47-26.56L145.47-26.56Q145.47 0.70 115.90 0.70L115.90 0.70L115.90 0.70Q111.17 0.70 103.36-0.45L103.36-0.45L110.53-38.27L110.53-38.27Q111.04-40.83 111.36-42.30L111.36-42.30L111.36-42.30Q121.09-43.01 125.41-43.01L125.41-43.01L125.41-43.01Q129.73-43.01 133.70-42.11L133.70-42.11L133.70-42.11Q137.66-41.22 140.29-39.23L140.29-39.23L140.29-39.23Q145.47-35.33 145.47-26.56ZM132.29-28.93L132.29-28.93L132.29-28.93Q132.29-38.46 125.44-38.46L125.44-38.46L124.80-38.46L124.80-38.46Q124.48-38.46 124.16-38.40L124.16-38.40L117.57-4.03L117.57-4.03Q117.82-3.90 118.08-3.90L118.08-3.90L118.59-3.90L118.59-3.90Q120.96-3.90 123.42-5.38L123.42-5.38L123.42-5.38Q125.89-6.85 127.81-9.86L127.81-9.86L127.81-9.86Q132.29-16.83 132.29-28.93ZM176.06-9.86L176.06-9.86L176.06-9.86Q177.28-8.32 177.28-5.82L177.28-5.82L177.28-5.82Q177.28-2.37 174.72-0.54L174.72-0.54L174.72-0.54Q172.16 1.28 168.13 1.28L168.13 1.28L168.13 1.28Q165.82 1.28 162.30 0.77L162.30 0.77L162.30 0.77Q155.39-0.32 153.28-0.32L153.28-0.32L153.28-0.32Q151.17-0.32 150.34-0.22L150.34-0.22L150.34-0.22Q149.50-0.13 148.16 0L148.16 0L156.03-42.24L183.62-42.24L183.62-42.24Q183.62-38.34 181.73-36.29L181.73-36.29L181.73-36.29Q179.84-34.24 176.13-34.24L176.13-34.24L176.13-34.24Q172.42-34.24 168.64-35.97L168.64-35.97L166.66-24.77L178.05-24.77L178.05-24.77Q178.05-21.38 176.38-19.49L176.38-19.49L176.38-19.49Q174.72-17.60 171.94-17.60L171.94-17.60L171.94-17.60Q169.15-17.60 167.42-18.24L167.42-18.24L167.42-18.24Q165.70-18.88 165.50-19.07L165.50-19.07L163.20-6.98L163.20-6.98Q164.74-6.78 167.62-6.78L167.62-6.78L167.62-6.78Q172.54-6.78 176.06-9.86ZM188.61 0L181.25 0L192.83-42.24L206.21-42.24L209.15-18.11L221.06-42.24L232.26-42.24L233.41-10.62L233.41-10.62Q233.66-4.35 236.74-2.43L236.74-2.43L236.74-2.43Q236.03-1.15 233.98 0.06L233.98 0.06L233.98 0.06Q231.94 1.28 229.22 1.28L229.22 1.28L229.22 1.28Q226.50 1.28 224.90 0.51L224.90 0.51L224.90 0.51Q223.30-0.26 222.40-1.54L222.40-1.54L222.40-1.54Q220.80-3.84 220.80-8.26L220.80-8.26L220.80-28.03L208.19 0L200.26 0L195.78-28.74L188.61 0ZM240.45-15.62L240.45-15.62L240.45-15.62Q240.45-27.71 246.72-35.33L246.72-35.33L246.72-35.33Q253.38-43.58 264.96-43.58L264.96-43.58L264.96-43.58Q273.34-43.58 277.57-39.52L277.57-39.52L277.57-39.52Q281.79-35.46 281.79-26.88L281.79-26.88L281.79-26.88Q281.79-13.82 275.14-6.21L275.14-6.21L275.14-6.21Q268.54 1.28 257.47 1.28L257.47 1.28L257.47 1.28Q248.83 1.28 244.64-3.04L244.64-3.04L244.64-3.04Q240.45-7.36 240.45-15.62ZM257.28-28.86L257.28-28.86L257.28-28.86Q254.40-17.34 254.40-8.26L254.40-8.26L254.40-8.26Q254.40-6.08 255.14-4.67L255.14-4.67L255.14-4.67Q255.87-3.26 257.82-3.26L257.82-3.26L257.82-3.26Q259.78-3.26 260.99-4.19L260.99-4.19L260.99-4.19Q262.21-5.12 263.17-7.23L263.17-7.23L263.17-7.23Q264.70-10.69 266.14-18.02L266.14-18.02L266.14-18.02Q267.58-25.34 267.71-28.38L267.71-28.38L267.71-28.38Q267.84-31.42 267.84-33.73L267.84-33.73L267.84-33.73Q267.84-36.03 267.14-37.50L267.14-37.50L267.14-37.50Q266.43-38.98 264.54-38.98L264.54-38.98L264.54-38.98Q262.66-38.98 261.38-37.82L261.38-37.82L261.38-37.82Q259.01-35.65 257.28-28.86ZM318.34-13.25L318.34-13.25L318.34-13.25Q320-12.03 320-9.44L320-9.44L320-9.44Q320-6.85 318.88-5.02L318.88-5.02L318.88-5.02Q317.76-3.20 315.58-1.79L315.58-1.79L315.58-1.79Q310.91 1.22 302.75 1.22L302.75 1.22L302.75 1.22Q294.59 1.22 290.14-3.04L290.14-3.04L290.14-3.04Q285.70-7.30 285.70-14.85L285.70-14.85L285.70-14.85Q285.70-25.54 291.26-33.66L291.26-33.66L291.26-33.66Q295.49-39.68 303.04-42.24L303.04-42.24L303.04-42.24Q306.94-43.52 310.78-43.52L310.78-43.52L310.78-43.52Q314.62-43.52 316.99-43.01L316.99-43.01L316.99-43.01Q319.36-42.50 321.15-41.47L321.15-41.47L321.15-41.47Q325.06-39.23 325.06-35.65L325.06-35.65L325.06-35.65Q325.06-32.38 321.98-29.95L321.98-29.95L321.98-29.95Q319.17-27.78 316.86-27.78L316.86-27.78L316.86-27.78Q314.56-27.78 313.60-28.10L313.60-28.10L313.60-28.10Q313.86-30.40 313.86-31.90L313.86-31.90L313.86-31.90Q313.86-33.41 313.79-34.50L313.79-34.50L313.79-34.50Q313.73-35.58 313.41-36.61L313.41-36.61L313.41-36.61Q312.77-38.98 310.82-38.98L310.82-38.98L310.82-38.98Q308.86-38.98 306.91-37.15L306.91-37.15L306.91-37.15Q304.96-35.33 303.30-32.26L303.30-32.26L303.30-32.26Q299.52-25.28 299.52-17.02L299.52-17.02L299.52-17.02Q299.52-13.06 301.76-10.78L301.76-10.78L301.76-10.78Q304-8.51 308.80-8.51L308.80-8.51L308.80-8.51Q312.38-8.51 315.78-10.88L315.78-10.88L315.78-10.88Q317.25-11.90 318.34-13.25ZM338.43 0L324.74 0L332.54-42.05L332.54-42.05Q338.88-42.75 348.13-42.75L348.13-42.75L348.13-42.75Q357.38-42.75 361.66-40.06L361.66-40.06L361.66-40.06Q365.95-37.38 365.95-31.97L365.95-31.97L365.95-31.97Q365.95-26.56 363.17-23.17L363.17-23.17L363.17-23.17Q360.38-19.78 355.58-18.69L355.58-18.69L355.58-18.69Q356.67-13.38 359.17-9.09L359.17-9.09L359.17-9.09Q361.47-5.06 364.16-3.78L364.16-3.78L364.16-3.78Q363.20-1.09 361.25 0.10L361.25 0.10L361.25 0.10Q359.30 1.28 356.51 1.28L356.51 1.28L356.51 1.28Q353.73 1.28 351.55-0.35L351.55-0.35L351.55-0.35Q349.38-1.98 347.65-4.99L347.65-4.99L347.65-4.99Q344-11.52 343.62-21.82L343.62-21.82L344.06-21.82L344.06-21.82Q348.80-21.95 351.17-24.42L351.17-24.42L351.17-24.42Q353.54-26.88 353.54-32.06L353.54-32.06L353.54-32.06Q353.54-38.53 348.10-38.78L348.10-38.78L346.69-38.78L346.69-38.78Q346.11-38.78 345.79-38.72L345.79-38.72L338.43 0ZM396.99 1.28L396.99 1.28L396.99 1.28Q388.80 1.28 388.03-10.37L388.03-10.37L377.02-10.37L377.02-10.37Q375.74-7.42 374.85-4.86L374.85-4.86L373.18 0L364.22 0L384.38-42.24L398.14-42.24L400.83-11.14L400.83-11.14Q401.47-4.42 404.03-2.43L404.03-2.43L404.03-2.43Q402.18 1.28 396.99 1.28ZM382.53-23.17L379.01-15.04L387.84-15.04L387.07-31.49L387.07-33.22L382.53-23.17ZM440.45-13.25L440.45-13.25L440.45-13.25Q442.11-12.03 442.11-9.44L442.11-9.44L442.11-9.44Q442.11-6.85 440.99-5.02L440.99-5.02L440.99-5.02Q439.87-3.20 437.70-1.79L437.70-1.79L437.70-1.79Q433.02 1.22 424.86 1.22L424.86 1.22L424.86 1.22Q416.70 1.22 412.26-3.04L412.26-3.04L412.26-3.04Q407.81-7.30 407.81-14.85L407.81-14.85L407.81-14.85Q407.81-25.54 413.38-33.66L413.38-33.66L413.38-33.66Q417.60-39.68 425.15-42.24L425.15-42.24L425.15-42.24Q429.06-43.52 432.90-43.52L432.90-43.52L432.90-43.52Q436.74-43.52 439.10-43.01L439.10-43.01L439.10-43.01Q441.47-42.50 443.26-41.47L443.26-41.47L443.26-41.47Q447.17-39.23 447.17-35.65L447.17-35.65L447.17-35.65Q447.17-32.38 444.10-29.95L444.10-29.95L444.10-29.95Q441.28-27.78 438.98-27.78L438.98-27.78L438.98-27.78Q436.67-27.78 435.71-28.10L435.71-28.10L435.71-28.10Q435.97-30.40 435.97-31.90L435.97-31.90L435.97-31.90Q435.97-33.41 435.90-34.50L435.90-34.50L435.90-34.50Q435.84-35.58 435.52-36.61L435.52-36.61L435.52-36.61Q434.88-38.98 432.93-38.98L432.93-38.98L432.93-38.98Q430.98-38.98 429.02-37.15L429.02-37.15L429.02-37.15Q427.07-35.33 425.41-32.26L425.41-32.26L425.41-32.26Q421.63-25.28 421.63-17.02L421.63-17.02L421.63-17.02Q421.63-13.06 423.87-10.78L423.87-10.78L423.87-10.78Q426.11-8.51 430.91-8.51L430.91-8.51L430.91-8.51Q434.50-8.51 437.89-10.88L437.89-10.88L437.89-10.88Q439.36-11.90 440.45-13.25ZM453.50 0L457.22-18.82L457.22-18.82Q455.36-36.16 448.83-39.87L448.83-39.87L448.83-39.87Q450.18-41.54 452.35-42.46L452.35-42.46L452.35-42.46Q454.53-43.39 457.15-43.39L457.15-43.39L457.15-43.39Q459.78-43.39 461.76-42.46L461.76-42.46L461.76-42.46Q463.74-41.54 465.02-39.55L465.02-39.55L465.02-39.55Q467.46-35.78 467.46-26.75L467.46-26.75L467.46-22.14L467.46-22.14Q471.30-33.41 475.14-38.27L475.14-38.27L475.14-38.27Q479.04-43.26 483.90-43.26L483.90-43.26L483.90-43.26Q485.82-43.26 487.10-42.27L487.10-42.27L487.10-42.27Q488.38-41.28 489.02-39.81L489.02-39.81L489.02-39.81Q484.10-37.63 479.36-31.36L479.36-31.36L479.36-31.36Q474.62-25.09 471.55-16.32L471.55-16.32L467.78 0L453.50 0Z" fill="url(#editing-shiny-gradient2)"></path></g></g><style>text {
  font-size: 64px;
  font-family: Arial Black;
  dominant-baseline: central;
  text-anchor: middle;
}</style></svg>